<?xml version="1.0" encoding="UTF-8"?>
<svg width="1280" height="620" viewBox="0 0 1280 620" fill="none" xmlns="http://www.w3.org/2000/svg">
  <defs>
    <filter id="softGlow" x="-20%" y="-20%" width="140%" height="140%">
      <feGaussianBlur stdDeviation="4"/>
    </filter>
  </defs>

  <rect width="1280" height="620" rx="20" fill="#071129"/>
  <rect x="12" y="12" width="1256" height="596" rx="16" stroke="#3F679F" stroke-opacity="0.8" stroke-width="2"/>
  <text x="36" y="62" fill="#DCEBFF" font-size="34" font-family="Arial, sans-serif">GD-3 Controls Master</text>

  <g transform="translate(36 106)">
    <rect width="320" height="96" rx="18" fill="#1A1631" stroke="#4D6695" stroke-width="2"/>
    <rect x="8" y="8" width="304" height="80" rx="14" stroke="#FF5DB4" stroke-width="3"/>
    <text x="160" y="60" fill="#F2DBEA" font-size="52" font-family="Arial, sans-serif" text-anchor="middle">BY-PASS</text>
  </g>

  <g transform="translate(400 106)">
    <rect width="640" height="120" rx="24" fill="#101935" stroke="#4F6EA2" stroke-width="2"/>
    <rect x="10" y="10" width="620" height="100" rx="18" stroke="#45CBFF" stroke-opacity="0.7" stroke-width="2"/>
    <line x1="214" y1="18" x2="214" y2="102" stroke="#5D7CAE" stroke-width="2"/>
    <line x1="426" y1="18" x2="426" y2="102" stroke="#5D7CAE" stroke-width="2"/>
    <text x="320" y="34" fill="#BFD4F1" font-size="30" font-family="Arial, sans-serif" text-anchor="middle">VIBE MODE</text>
    <rect x="20" y="30" width="180" height="78" rx="12" fill="#111E3E" stroke="#57E8FF" stroke-width="3"/>
    <rect x="232" y="30" width="180" height="78" rx="12" fill="#111E3E" stroke="#FF5DB4" stroke-width="3"/>
    <rect x="444" y="30" width="180" height="78" rx="12" fill="#111E3E" stroke="#FFB161" stroke-width="3"/>
    <text x="110" y="80" fill="#D8EBFF" font-size="46" font-family="Arial, sans-serif" text-anchor="middle">SMOOTH</text>
    <text x="322" y="80" fill="#D8EBFF" font-size="46" font-family="Arial, sans-serif" text-anchor="middle">PUNCH</text>
    <text x="534" y="80" fill="#D8EBFF" font-size="46" font-family="Arial, sans-serif" text-anchor="middle">DIRTY</text>
  </g>

  <g transform="translate(36 268)">
    <rect width="260" height="94" rx="16" fill="#123645" stroke="#4D6795" stroke-width="2"/>
    <rect x="6" y="6" width="248" height="82" rx="12" stroke="#66DFFF" stroke-width="3"/>
    <rect x="16" y="31" width="228" height="34" rx="17" fill="#0A1A32" stroke="#4B6288" stroke-width="2"/>
    <rect x="166" y="31" width="62" height="34" rx="15" fill="#67E7FF" stroke="#EAF8FF"/>
    <text x="130" y="58" fill="#EAF8FF" font-size="44" font-family="Arial Unicode MS, Arial, sans-serif" text-anchor="middle">GUŽVANJE</text>
  </g>

  <g transform="translate(336 268)">
    <rect width="88" height="88" rx="14" fill="#123440" stroke="#4B638A" stroke-width="2"/>
    <rect x="10" y="10" width="68" height="68" rx="10" stroke="#5EE4FF" stroke-width="3"/>
    <path d="M22 46 L36 60 L66 28" stroke="#EAFEFF" stroke-width="5"/>
    <text x="44" y="24" fill="#D0E6FF" font-size="20" font-family="Arial, sans-serif" text-anchor="middle">SYNC</text>
  </g>

  <g transform="translate(458 288)">
    <circle cx="24" cy="24" r="20" fill="#121C30" stroke="#566D96" stroke-width="2"/>
    <circle cx="24" cy="24" r="13" fill="#42FF93" filter="url(#softGlow)"/>
  </g>

  <text x="36" y="420" fill="#AFC6E7" font-size="26" font-family="Menlo, monospace">States covered:</text>
  <text x="36" y="458" fill="#AFC6E7" font-size="26" font-family="Menlo, monospace">bypass(off/on/hover/pressed/disabled), vibe items(on/off), guzvanje(off/on/hover/pressed), sync(off/on/disabled), led(off/on)</text>
</svg>
