<?xml version="1.0" encoding="UTF-8"?>
<svg width="1180" height="760" viewBox="0 0 1180 760" fill="none" xmlns="http://www.w3.org/2000/svg">
  <defs>
    <linearGradient id="bg" x1="590" y1="0" x2="590" y2="760" gradientUnits="userSpaceOnUse">
      <stop stop-color="#070C1E"/>
      <stop offset="1" stop-color="#102146"/>
    </linearGradient>
    <linearGradient id="frameStroke" x1="0" y1="0" x2="1180" y2="760" gradientUnits="userSpaceOnUse">
      <stop stop-color="#3FDFFF"/>
      <stop offset="1" stop-color="#FF53B1"/>
    </linearGradient>
    <filter id="softGlow" x="-20%" y="-20%" width="140%" height="140%">
      <feGaussianBlur stdDeviation="4"/>
    </filter>
  </defs>

  <rect width="1180" height="760" rx="24" fill="url(#bg)"/>
  <rect x="2" y="2" width="1176" height="756" rx="22" stroke="url(#frameStroke)" stroke-opacity="0.9" stroke-width="3"/>
  <rect x="16" y="16" width="1148" height="78" rx="14" fill="#0B1735" stroke="#47DEFF" stroke-opacity="0.7" stroke-width="2"/>
  <rect x="16" y="108" width="1148" height="264" rx="14" fill="#0A152F" stroke="#FF5BB8" stroke-opacity="0.55" stroke-width="2"/>
  <rect x="16" y="408" width="1148" height="220" rx="14" fill="#0A1531" stroke="#B978FF" stroke-opacity="0.6" stroke-width="2"/>
  <rect x="16" y="656" width="1148" height="88" rx="14" fill="#0A152C" stroke="#FFA13A" stroke-opacity="0.65" stroke-width="2"/>

  <rect x="558" y="26" width="64" height="6" rx="3" fill="#35E8FF" filter="url(#softGlow)"/>
  <rect x="54" y="126" width="8" height="500" rx="4" fill="#FF4FAE" fill-opacity="0.7" filter="url(#softGlow)"/>
  <rect x="1118" y="126" width="8" height="500" rx="4" fill="#35E8FF" fill-opacity="0.7" filter="url(#softGlow)"/>

  <g filter="url(#softGlow)">
    <rect x="230" y="22" width="720" height="58" rx="12" fill="#0D1A3A" stroke="#7AA5EE" stroke-opacity="0.8" stroke-width="2"/>
    <text x="590" y="61" fill="#E7F7FF" font-size="42" font-family="Arial Unicode MS, Arial, sans-serif" text-anchor="middle">Gužvarizer</text>
  </g>
</svg>
